<?xml version="1.0" standalone="no"?><!DOCTYPE svg PUBLIC "-//W3C//DTD SVG 1.1//EN" "http://www.w3.org/Graphics/SVG/1.1/DTD/svg11.dtd"><svg t="1759863062867" class="icon" viewBox="0 0 1024 1024" version="1.1" xmlns="http://www.w3.org/2000/svg" p-id="8219" xmlns:xlink="http://www.w3.org/1999/xlink" width="200" height="200"><path d="M1011.502733 951.608662L705.339368 645.545285 868.019902 594.951339c32.996052-10.19878 56.793204-37.795477 62.192558-71.891397 5.399354-34.09592-8.698959-67.6919-36.895585-87.58952L717.437921 311.085306c-1.399832-0.99988-2.299725-2.699677-2.299725-4.399473L717.937861 91.311604c0.399952-34.495872-18.397799-65.692139-49.194114-81.390261-30.696327-15.698122-66.991984-12.598492-94.588682 8.099031L401.37574 146.804964c-1.399832 0.99988-3.299605 1.299844-4.899414 0.799904l-203.975592-69.191721c-32.696088-11.098672-68.19184-2.799665-92.588921 21.597416-24.397081 24.397081-32.696088 59.892833-21.597416 92.588921l69.191721 203.875605c0.599928 1.699797 0.299964 3.599569-0.699917 4.999401L18.021611 574.05384C-2.675912 601.650538-5.775541 637.946195 9.922581 668.742509c15.598134 30.696327 46.594425 48.594185 81.390261 49.194114l215.374228-2.699677h0.099988c1.699797 0 3.399593 0.799904 4.399474 2.199737l124.385116 175.878954c17.097954 24.197105 44.2947 38.095442 73.191242 38.095442 4.799426 0 9.598851-0.399952 14.298289-1.099868 34.09592-5.399354 61.59263-29.196506 71.891398-62.192559l50.593946-162.680533 306.163365 306.163365c8.299007 8.299007 19.097715 12.398516 29.896423 12.398516 10.798708 0 21.697404-4.099509 29.896422-12.398516 16.498026-16.598014 16.498026-43.394807 0-59.992822zM514.062256 842.921668c-0.299964 0.99988-0.99988 3.199617-4.299485 3.699557-3.199617 0.599928-4.699438-1.399832-5.199378-2.199737L380.178276 668.542533c-16.897978-23.897141-44.2947-37.995454-73.491206-37.995453h-1.199856l-215.374229 2.699677c-1.199856-0.099988-3.299605 0-4.799426-2.899653-1.499821-2.999641-0.099988-4.799426 0.499941-5.59933l128.784589-172.679338c17.697882-23.697164 22.597296-54.593467 13.098433-82.790093l-69.191721-203.975593c-0.299964-0.899892-1.099868-3.099629 1.299845-5.499342 2.399713-2.399713 4.499462-1.599809 5.499342-1.299844l203.975593 69.19172c28.196626 9.398875 58.992941 4.499462 82.690105-13.098432L624.749011 85.812262c0.799904-0.599928 2.699677-1.999761 5.59933-0.49994 2.999641 1.499821 2.899653 3.799545 2.899654 4.799425l-2.799665 215.474217c-0.299964 29.596459 13.898337 57.49312 38.095441 74.491087l175.778967 124.385116c0.799904 0.599928 2.699677 1.899773 2.199736 5.199378-0.49994 3.299605-2.699677 3.999521-3.699557 4.299485l-205.675389 63.992343c-14.198301 4.399474-26.796794 12.098552-36.995573 22.297332a90.054224 90.054224 0 0 0-22.297332 36.895585L514.062256 842.921668z" p-id="8220" fill="#8a8a8a"></path></svg>